<svg width="273" height="351" viewBox="0 0 273 351" fill="none" xmlns="http://www.w3.org/2000/svg">
<path d="M36.0728 0C44.6177 5.24902 48.8901 11.9629 48.8901 20.1416H51.0874C66.5903 10.376 80.9336 4.5166 94.1172 2.56348C108.644 2.56348 117.921 13.5498 121.949 35.5225C121.949 49.3164 109.071 76.5991 83.314 117.371V120.3L105.836 117.371C118.287 117.371 127.625 130.859 133.851 157.837C133.851 192.505 116.273 231.384 81.1167 274.475C59.6323 302.673 37.7207 327.881 15.3818 350.098H7.87451C2.62549 348.633 0.000976562 343.689 0.000976562 335.266C10.2549 307.19 15.1377 254.761 14.6494 177.979L7.14209 171.021V167.908L14.6494 147.766C15.3818 49.2554 20.0205 0 28.5654 0H36.0728ZM36.0728 60.6079L32.5938 125.244V137.512H39.7349C80.2622 96.7407 100.892 62.7441 101.625 35.5225C98.6948 27.832 95.3379 23.6206 91.5537 22.8882C74.5859 22.8882 56.0923 35.4614 36.0728 60.6079ZM32.5938 183.289V191.162L30.3965 297.363H33.1431C54.6274 297.363 79.7129 264.343 108.399 198.303L113.709 177.979C113.709 151.001 106.935 137.512 93.3848 137.512C52.8574 152.283 32.5938 167.542 32.5938 183.289ZM179.811 7.14111C192.018 24.1089 203.797 32.5928 215.15 32.5928C248.841 51.0254 265.687 78.8574 265.687 116.089C270.448 172.607 235.719 240.417 161.5 319.519C158.937 336.243 153.932 344.604 146.485 344.604C139.649 344.604 136.231 340.454 136.231 332.153H134.034L149.049 268.799C152.589 217.041 156.068 150.024 159.486 67.749V40.1001C159.486 18.1274 166.261 7.14111 179.811 7.14111ZM164.43 286.377H166.627C195.924 268.921 221.437 229.065 243.165 166.809L248.475 123.596V108.215C242.005 66.2231 223.39 45.2271 192.628 45.2271C180.543 45.2271 174.5 57.0068 174.5 80.5664L164.43 286.377Z" fill="white"/>
</svg>
